<svg xmlns="http://www.w3.org/2000/svg" xmlns:xlink="http://www.w3.org/1999/xlink" xmlns:serif="http://www.serif.com/" viewBox="0 0 24 30" version="1.1" xml:space="preserve" style="" x="0px" y="0px" fill-rule="evenodd" clip-rule="evenodd" stroke-linejoin="round" stroke-miterlimit="2"><g><path d="M12,5.869c-0.87,-0.496 -1.832,-0.769 -2.842,-0.769c-4.592,0 -6.908,3.874 -6.908,8.75c-0,4.876 3.155,8.75 6.908,8.75l5.684,0c3.753,0 6.908,-3.874 6.908,-8.75c0,-4.876 -2.316,-8.75 -6.908,-8.75c-1.01,0 -1.972,0.273 -2.842,0.769Zm-0.421,1.504c0.254,0.173 0.588,0.173 0.842,0c0.725,-0.491 1.547,-0.773 2.421,-0.773c3.725,0 5.408,3.294 5.408,7.25c0,3.956 -2.363,7.25 -5.408,7.25l-5.684,0c-3.045,0 -5.408,-3.294 -5.408,-7.25c-0,-3.956 1.683,-7.25 5.408,-7.25c0.874,0 1.696,0.282 2.421,0.773Z"/><path d="M11.25,6.343l0,0.007c0,0.053 0.006,0.105 0.016,0.155c0.02,0.101 0.058,0.186 0.106,0.255c0.134,0.205 0.366,0.34 0.628,0.34c0,0 0.75,-0.059 0.75,-0.763l-0,-0.987c-0,-1.023 0.482,-1.986 1.3,-2.6c0.331,-0.248 0.398,-0.719 0.15,-1.05c-0.248,-0.331 -0.719,-0.398 -1.05,-0.15c-1.196,0.897 -1.9,2.305 -1.9,3.8c0,0.496 0,0.909 0,0.987l0,0.006Z"/><path d="M11.252,6.297c-0.001,0.018 -0.002,0.035 -0.002,0.053c-0,0.414 0.336,0.75 0.75,0.75c-0,0 0.75,-0.136 0.75,-0.867c-0,0 -0,0 -0,0c-0,-2.045 -1.308,-3.86 -3.248,-4.506c-0.393,-0.131 -0.818,0.081 -0.949,0.474c-0.131,0.393 0.082,0.818 0.475,0.949c1.327,0.442 2.222,1.684 2.222,3.083l0.002,0.064Z"/><path d="M21,13.1l-18,0c-0.414,0 -0.75,0.336 -0.75,0.75c0,0.414 0.336,0.75 0.75,0.75l18,0c0.414,0 0.75,-0.336 0.75,-0.75c0,-0.414 -0.336,-0.75 -0.75,-0.75Z"/><path d="M12.75,13.85l-0,-3c0,-0.414 -0.336,-0.75 -0.75,-0.75c-0.414,0 -0.75,0.336 -0.75,0.75l0,3c0,0.414 0.336,0.75 0.75,0.75c0.414,0 0.75,-0.336 0.75,-0.75Z"/><path d="M14.03,17.82l-1.5,-1.5c-0.293,-0.293 -0.767,-0.293 -1.06,-0l-1.5,1.5c-0.293,0.292 -0.293,0.768 -0,1.06c0.292,0.293 0.768,0.293 1.06,0l0.97,-0.969c0,-0 0.97,0.969 0.97,0.969c0.292,0.293 0.768,0.293 1.06,0c0.293,-0.292 0.293,-0.768 0,-1.06Z"/><path d="M16.75,13.85l-0,-2c0,-0.414 -0.336,-0.75 -0.75,-0.75c-0.414,0 -0.75,0.336 -0.75,0.75l0,2c0,0.414 0.336,0.75 0.75,0.75c0.414,0 0.75,-0.336 0.75,-0.75Z"/><path d="M8.75,13.85l-0,-2c-0,-0.414 -0.336,-0.75 -0.75,-0.75c-0.414,0 -0.75,0.336 -0.75,0.75l0,2c-0,0.414 0.336,0.75 0.75,0.75c0.414,0 0.75,-0.336 0.75,-0.75Z"/></g><text x="0" y="39" fill="#000000" font-size="5px" font-weight="bold" font-family="'Helvetica Neue', Helvetica, Arial-Unicode, Arial, Sans-serif">Created by Rolas Design</text><text x="0" y="44" fill="#000000" font-size="5px" font-weight="bold" font-family="'Helvetica Neue', Helvetica, Arial-Unicode, Arial, Sans-serif">from the Noun Project</text></svg>